<?xml version="1.0" encoding="UTF-8"?>
<svg xmlns="http://www.w3.org/2000/svg" width="24" height="24" viewBox="0 0 48 48" aria-hidden="true">
  <path fill="#FFC107" d="M43.6 20.5H42V20H24v8h11.3C33.8 32.6 29.3 36 24 36c-6.6 0-12-5.4-12-12s5.4-12 12-12c3 0 5.8 1.1 7.9 3l5.7-5.7C34.1 6.1 29.3 4 24 4 12.9 4 4 12.9 4 24s8.9 20 20 20 20-8.9 20-20c0-1.2-.1-2.3-.4-3.5z"/>
  <path fill="#FF3D00" d="M6.3 14.7l6.6 4.8C14.6 16.3 18.9 12 24 12c3 0 5.8 1.1 7.9 3l5.7-5.7C34.1 6.1 29.3 4 24 4 16.1 4 9.3 8.6 6.3 14.7z"/>
  <path fill="#4CAF50" d="M24 44c5.2 0 10-2 13.5-5.2l-6.2-5.2C29.2 35.6 26.8 36 24 36c-5.3 0-9.8-3.4-11.4-8.1l-6.6 5.1C9.1 39.3 16 44 24 44z"/>
  <path fill="#1976D2" d="M43.6 20.5H42V20H24v8h11.3c-1 2.9-3 5.3-5.9 6.6l6.2 5.2C38.4 37.5 40 31.2 40 24c0-1.2-.1-2.3-.4-3.5z"/>
</svg>

